<svg xmlns="http://www.w3.org/2000/svg" width="100" height="100" viewBox="0 0 100 100">
    <g fill="none" fill-rule="evenodd">
        <circle cx="50" cy="50" r="50" fill="#87064B"/>
        <path fill="#FFF" fill-rule="nonzero" d="M70.333 32H58.777a9.97 9.97 0 0 0-8.444 4.69A9.97 9.97 0 0 0 41.89 32H30.333A3.333 3.333 0 0 0 27 35.333v30a3.333 3.333 0 0 0 3.333 3.334h9.334a22.91 22.91 0 0 1 6.476.966A12.2 12.2 0 0 1 50.333 72l1.257-.953c.409-.267.833-.51 1.27-.727a24.02 24.02 0 0 1 8.7-1.667h8.773a3.333 3.333 0 0 0 3.334-3.333V35.333A3.333 3.333 0 0 0 70.333 32zm-40 33.333v-30H41.89A6.667 6.667 0 0 1 48.557 42v24.883a26.463 26.463 0 0 0-8.89-1.55h-9.334zm40 0H61.56A27.213 27.213 0 0 0 52.11 67V42a6.667 6.667 0 0 1 6.667-6.667h11.556v30z"/>
    </g>
</svg>
